<svg width="64" height="64" viewBox="0 0 64 64" fill="none" xmlns="http://www.w3.org/2000/svg">
<path fill-rule="evenodd" clip-rule="evenodd" d="M16.734 14.4746C15.6504 14.4746 14.772 15.353 14.772 16.4367L14.7722 20.7043C14.7722 21.7878 13.8938 22.6663 12.8102 22.6663C11.7266 22.6664 10.8482 21.788 10.8481 20.7044L10.848 16.4368C10.8479 13.1859 13.4832 10.5505 16.734 10.5505H21.2955C22.379 10.5505 23.2575 11.429 23.2575 12.5126C23.2575 13.5961 22.379 14.4746 21.2955 14.4746H16.734ZM47.4474 14.4746C48.531 14.4746 49.4094 15.353 49.4094 16.4367L49.4093 20.7043C49.4092 21.7878 50.2876 22.6663 51.3712 22.6663C52.4548 22.6664 53.3332 21.788 53.3333 20.7044L53.3334 16.4368C53.3335 13.1859 50.6982 10.5505 47.4474 10.5505H42.886C41.8024 10.5505 40.924 11.429 40.924 12.5126C40.924 13.5961 41.8024 14.4746 42.886 14.4746H47.4474ZM33.9217 27.0576C33.9217 26.0462 33.1018 25.2264 32.0905 25.2264C31.0791 25.2264 30.2593 26.0462 30.2593 27.0576V32.5776H29.6401C28.6287 32.5776 27.8089 33.3974 27.8089 34.4088C27.8089 35.4201 28.6287 36.24 29.6401 36.24H32.066C33.0909 36.24 33.9217 35.4091 33.9217 34.3843V27.0576ZM42.7705 39.994C43.5367 39.2278 43.5367 37.9855 42.7705 37.2193C42.0043 36.4531 40.762 36.4531 39.9958 37.2193L39.6122 37.6029C35.457 41.758 28.7201 41.758 24.5649 37.6029L24.1857 37.2237C23.4196 36.4574 22.1773 36.4573 21.411 37.2235C20.6448 37.9896 20.6447 39.2319 21.4108 39.9982L21.7902 40.3776C27.4778 46.0652 36.6993 46.0652 42.3869 40.3776L42.7705 39.994ZM49.4094 47.3769C49.4094 48.4605 48.531 49.339 47.4474 49.339H42.886C41.8024 49.339 40.924 50.2174 40.924 51.301C40.924 52.3846 41.8024 53.263 42.886 53.263H47.4474C50.6982 53.263 53.3335 50.6276 53.3334 47.3768L53.3333 43.1092C53.3332 42.0256 52.4548 41.1472 51.3712 41.1472C50.2876 41.1473 49.4092 42.0257 49.4093 43.1093L49.4094 47.3769ZM14.772 47.3769C14.772 48.4605 15.6504 49.339 16.734 49.339H21.2955C22.379 49.339 23.2575 50.2174 23.2575 51.301C23.2575 52.3846 22.379 53.263 21.2955 53.263H16.734C13.4832 53.263 10.8479 50.6276 10.848 47.3768L10.8481 43.1092C10.8482 42.0256 11.7266 41.1472 12.8102 41.1472C13.8938 41.1473 14.7722 42.0257 14.7722 43.1093L14.772 47.3769ZM24.2321 21.5572C25.3157 21.5572 26.1941 22.4356 26.1941 23.5192V28.4996C26.1941 29.5831 25.3157 30.4616 24.2321 30.4616C23.1485 30.4616 22.2701 29.5831 22.2701 28.4996V23.5192C22.2701 22.4356 23.1485 21.5572 24.2321 21.5572ZM41.9112 23.5192C41.9112 22.4356 41.0327 21.5572 39.9492 21.5572C38.8656 21.5572 37.9871 22.4356 37.9871 23.5192V28.4996C37.9871 29.5831 38.8656 30.4616 39.9492 30.4616C41.0327 30.4616 41.9112 29.5831 41.9112 28.4996V23.5192Z" fill="#003087"/>
</svg>
