<svg xmlns="http://www.w3.org/2000/svg" viewBox="0 0 24 24"><path fill="#2C2E2F" d="M3 6a.5.5 0 0 1 0-1h2.158a1.5 1.5 0 0 1 1.449 1.11l2.08 7.514c.058.22.258.376.483.376h9.14a.505.505 0 0 0 .487-.389l1.458-4.966c.08-.308-.14-.645-.484-.645H9a.5.5 0 0 1 0-1h10.771c1.039 0 1.688.99 1.448 1.912l-1.458 4.965A1.5 1.5 0 0 1 18.31 15H9.17c-.68 0-1.276-.462-1.449-1.115l-2.08-7.512A.502.502 0 0 0 5.159 6H3zm7.5 12a1 1 0 1 0-2.001.001A1 1 0 0 0 10.5 18zm1 0a2 2 0 1 1-4.001-.001A2 2 0 0 1 11.5 18zm8 0a1 1 0 1 0-2.001.001A1 1 0 0 0 19.5 18zm1 0a2 2 0 1 1-4.001-.001A2 2 0 0 1 20.5 18z"/></svg>