<svg width="40" height="40" viewBox="0 0 40 40" fill="none" xmlns="http://www.w3.org/2000/svg">
<circle cx="20" cy="20" r="20" fill="#F7F5F0"/>
<rect x="8.75" y="8.75" width="22.5" height="22.5" rx="6" fill="#C089F7"/>
<path d="M19.8772 19.5802C20.9094 22.883 23.8126 22.8317 24.3908 22.8215C24.4163 22.8211 24.4372 22.8207 24.4533 22.8207L24.4533 25.6406C24.4533 25.6406 24.4533 25.6406 24.4533 25.6406L24.4534 21.5256C24.4534 21.041 25.0241 20.7821 25.3888 21.1012L28.4802 23.8062C28.737 24.0309 28.737 24.4304 28.4802 24.6551L25.3888 27.3601C25.0241 27.6791 24.4534 27.4202 24.4534 26.9356L24.4533 25.6406C24.4502 25.6408 24.4364 25.6413 24.3849 25.6424C24.329 25.6436 24.2546 25.6446 24.1651 25.6439C23.9862 25.6426 23.7501 25.6344 23.4724 25.6077C22.9206 25.5547 22.1886 25.4268 21.4043 25.1218C19.7891 24.4936 18.0347 23.1383 17.1857 20.4213C16.1535 17.1185 13.2503 17.1698 12.6721 17.18C12.6466 17.1805 12.6257 17.1808 12.6096 17.1808H11.7636V14.3609H12.6096C12.6091 14.3609 12.5969 14.3608 12.6781 14.3591C12.7339 14.358 12.8083 14.357 12.8979 14.3576C13.0768 14.359 13.3128 14.3671 13.5905 14.3938C14.1424 14.4469 14.8743 14.5748 15.6586 14.8798C17.2738 15.5079 19.0282 16.8633 19.8772 19.5802Z" fill="#761AD3"/>
<path d="M25.3888 12.6406C25.0241 12.3216 24.4534 12.5805 24.4534 13.0651V14.36C24.4503 14.3598 24.4364 14.3594 24.3849 14.3583C24.329 14.3572 24.2546 14.3562 24.1651 14.3568C23.9862 14.3582 23.7501 14.3663 23.4724 14.393C22.9206 14.4461 22.1886 14.574 21.4043 14.879C19.7891 15.5071 18.0347 16.8625 17.1857 19.5794C16.1535 22.8822 13.2503 22.8309 12.6721 22.8207C12.6466 22.8203 12.6257 22.8199 12.6096 22.8199H11.7636V25.6398H12.6096C12.6091 25.6398 12.5969 25.6399 12.6781 25.6416C12.7339 25.6428 12.8083 25.6438 12.8979 25.6431C13.0768 25.6417 13.3128 25.6336 13.5905 25.6069C14.1424 25.5539 14.8743 25.426 15.6586 25.121C17.2738 24.4928 19.0282 23.1374 19.8772 20.4205C20.9094 17.1177 23.8126 17.169 24.3908 17.1792C24.4163 17.1797 24.4372 17.18 24.4533 17.18L24.4534 14.36C24.4534 14.36 24.4534 14.36 24.4534 14.36V18.4751C24.4534 18.9597 25.0241 19.2186 25.3888 18.8996L28.4802 16.1945C28.737 15.9698 28.737 15.5704 28.4802 15.3457L25.3888 12.6406Z" fill="#F8F1FF"/>
</svg>
