<svg viewBox="0 0 96 96" xmlns="http://www.w3.org/2000/svg"><path d="M52.87 13.31a1 1 0 0 1 .018.21V56.5a4.5 4.5 0 0 1-4.5 4.5H46.84a4.5 4.5 0 0 1-4.5-4.5v-30a1 1 0 1 1 2 0v30a2.5 2.5 0 0 0 2.5 2.5h1.548a2.5 2.5 0 0 0 2.5-2.5V13.588c-.282-1.548-.919-2.525-1.908-3.031a3 3 0 0 0-4.037 1.305L9.366 81.455a3 3 0 0 0 2.671 4.366h71.154a3 3 0 0 0 2.672-4.364L58.256 27.71a1 1 0 0 1 1.78-.913l27.607 53.748a5 5 0 0 1-4.452 7.276H12.037a5 5 0 0 1-4.452-7.276l35.577-69.593a5 5 0 0 1 6.728-2.176c1.61.823 2.604 2.37 2.98 4.535zm-5.256 62.17a5.5 5.5 0 1 1 0-11 5.5 5.5 0 0 1 0 11zm0-2a3.5 3.5 0 1 0 0-7 3.5 3.5 0 0 0 0 7z" fill="#d20000"/></svg>