<svg width="48" height="48" viewBox="0 0 48 48" fill="none" xmlns="http://www.w3.org/2000/svg">
<path fill-rule="evenodd" clip-rule="evenodd" d="M23.9997 22.1307L19.2575 17.3886C18.741 16.8722 17.9037 16.8722 17.3873 17.3887C16.8709 17.9051 16.8709 18.7424 17.3873 19.2588L22.1295 24.0008L17.3875 28.7425C16.8711 29.259 16.8711 30.0963 17.3875 30.6127C17.9039 31.1291 18.7412 31.1291 19.2576 30.6127L23.9997 25.8709L28.7417 30.6127C29.2581 31.1291 30.0954 31.1291 30.6118 30.6127C31.1282 30.0962 31.1282 29.2589 30.6118 28.7425L25.8698 24.0008L30.612 19.2588C31.1284 18.7424 31.1284 17.9051 30.612 17.3887C30.0956 16.8722 29.2583 16.8722 28.7418 17.3886L23.9997 22.1307Z" fill="#545D68"/>
</svg>
