<svg xmlns="http://www.w3.org/2000/svg" fill="currentColor" viewBox="0 0 24 24"><path fill-rule="evenodd" d="M8.788 4.287a.998.998 0 0 1 .808-.282 1 1 0 0 1 .29.034l5.961 1.597a2 2 0 0 1 1.215.932l4.742 8.215a1 1 0 0 1-.366 1.365l-8.066 4.657a1 1 0 0 1-1.366-.366L11.753 20H5a1 1 0 0 1-1-1V9.838a2 2 0 0 1 .597-1.426l4.191-4.125zm-1.524 7.938a2 2 0 0 1-.2-1.518l.953-3.556-2.368 2.33a.5.5 0 0 0-.149.357V18.5h5.387l-3.623-6.275zm4.45-1.485a1.5 1.5 0 1 0 .776-2.898 1.5 1.5 0 0 0-.776 2.898z" clip-rule="evenodd"/></svg>