<svg width="40" height="40" viewBox="0 0 40 40" fill="none" xmlns="http://www.w3.org/2000/svg">
<circle cx="20" cy="20" r="20" fill="#F7F5F0"/>
<path fill-rule="evenodd" clip-rule="evenodd" d="M15.1686 8.125H24.3352C25.6009 8.125 26.6269 9.18832 26.6269 10.5V29.5C26.6269 30.8117 25.6009 31.875 24.3352 31.875H15.1686C13.9029 31.875 12.8769 30.8117 12.8769 29.5V10.5C12.8769 9.18832 13.9029 8.125 15.1686 8.125Z" fill="#515354"/>
<path fill-rule="evenodd" clip-rule="evenodd" d="M15.2514 9.35352H24.2523C24.8737 9.35352 25.3774 9.87818 25.3774 10.5254V26.9316C25.3774 27.5788 24.8737 28.1035 24.2523 28.1035H15.2514C14.63 28.1035 14.1263 27.5788 14.1263 26.9316V10.5254C14.1263 9.87818 14.63 9.35352 15.2514 9.35352Z" fill="white"/>
<path fill-rule="evenodd" clip-rule="evenodd" d="M18.606 29.3848H20.8977C21.2141 29.3848 21.4706 29.6646 21.4706 30.0098C21.4706 30.355 21.2141 30.6348 20.8977 30.6348H18.606C18.2896 30.6348 18.0331 30.355 18.0331 30.0098C18.0331 29.6646 18.2896 29.3848 18.606 29.3848Z" fill="#C9C9CA"/>
</svg>
