<?xml version="1.0" encoding="UTF-8"?>
<svg width="16px" height="16px" viewBox="0 0 16 16" version="1.1" xmlns="http://www.w3.org/2000/svg" xmlns:xlink="http://www.w3.org/1999/xlink">
    <!-- Generator: Sketch 55.2 (78181) - https://sketchapp.com -->
    <title>Icons/external-alt</title>
    <desc>Created with Sketch.</desc>
    <g id="Letter-of-Auth" stroke="none" stroke-width="1" fill="none" fill-rule="evenodd">
        <g id="mobile" transform="translate(-234.000000, -469.000000)" fill="#0070BA">
            <g id="Icons/external-alt" transform="translate(233.000000, 468.000000)">
                <path d="M13.9393398,2.5 L10.5,2.5 C10.0857864,2.5 9.75,2.16421356 9.75,1.75 C9.75,1.33578644 10.0857864,1 10.5,1 L15.75,1 C16.1642136,1 16.5,1.33578644 16.5,1.75 L16.5,6.56931304 C16.5,6.9835266 16.1642136,7.31931304 15.75,7.31931304 C15.3357864,7.31931304 15,6.9835266 15,6.56931304 L15,3.56066017 L9.49428544,9.06637474 C9.20139222,9.35926796 8.72651848,9.35926796 8.43362526,9.06637474 C8.14073204,8.77348152 8.14073204,8.29860778 8.43362526,8.00571456 L13.9393398,2.5 Z M13,11.75 C13,11.3357864 13.3357864,11 13.75,11 C14.1642136,11 14.5,11.3357864 14.5,11.75 L14.5,14.4166667 C14.5,15.5672599 13.5672599,16.5 12.4166667,16.5 L3.08333333,16.5 C1.9327401,16.5 1,15.5672599 1,14.4166667 L1,5.08333333 C1,3.9327401 1.9327401,3 3.08333333,3 L5.70855035,3 C6.12276391,3 6.45855035,3.33578644 6.45855035,3.75 C6.45855035,4.16421356 6.12276391,4.5 5.70855035,4.5 L3.08333333,4.5 C2.76116723,4.5 2.5,4.76116723 2.5,5.08333333 L2.5,14.4166667 C2.5,14.7388328 2.76116723,15 3.08333333,15 L12.4166667,15 C12.7388328,15 13,14.7388328 13,14.4166667 L13,11.75 Z" id="Combined-Shape"></path>
            </g>
        </g>
    </g>
</svg>