<svg width="64" height="64" viewBox="0 0 64 64" fill="none" xmlns="http://www.w3.org/2000/svg">
<path fill-rule="evenodd" clip-rule="evenodd" d="M51.407 17.3563C50.6931 18.1991 49.4311 18.3036 48.5882 17.5897C38.796 9.29516 24.3819 9.27226 14.6248 17.586C13.784 18.3024 12.5217 18.2016 11.8054 17.3608C11.089 16.5201 11.1898 15.2578 12.0305 14.5414C23.2901 4.94741 39.897 4.98562 51.1736 14.5375C52.0164 15.2515 52.1209 16.5135 51.407 17.3563ZM38.0086 19.6716C33.7699 17.9745 29.0416 17.9677 24.798 19.6527C16.539 22.932 11.9541 31.7909 14.0462 40.4273L14.4564 42.1208C14.7165 43.1943 14.057 44.2754 12.9835 44.5354C11.91 44.7955 10.8289 44.136 10.5688 43.0625L10.1586 41.369C7.59735 30.7956 13.2106 19.9498 23.3219 15.935C28.5173 13.8721 34.306 13.8805 39.4954 15.9582L39.9561 16.1427C49.8325 20.097 55.7263 30.2902 54.2263 40.8225L53.9164 42.9981L53.8413 43.2728C52.6457 47.6433 48.6745 50.6741 44.1434 50.6741C38.7861 50.6741 34.3698 46.4734 34.1018 41.1228L33.853 36.1554C33.7962 35.0215 32.8603 34.1313 31.7249 34.1313C30.4881 34.1313 29.5112 35.1809 29.5997 36.4145L29.9867 41.8055C30.0433 42.5951 30.1916 43.3754 30.4285 44.1307L30.908 45.6599C31.8753 48.7444 33.8812 51.2196 36.6938 52.9316C37.6373 53.5059 37.9366 54.7363 37.3623 55.6799C36.788 56.6234 35.5576 56.9227 34.614 56.3484C31.0243 54.1633 28.3667 50.924 27.0912 46.8567L26.6117 45.3276C26.2821 44.2765 26.0758 43.1906 25.9969 42.0919L25.61 36.7009C25.3552 33.1513 28.1662 30.1313 31.7249 30.1313C34.9916 30.1313 37.6846 32.6927 37.848 35.9553L38.0968 40.9227C38.2581 44.1446 40.9175 46.6741 44.1434 46.6741C46.8718 46.6741 49.2631 44.8491 49.9831 42.2173L49.9918 42.1852L50.2662 40.2585C51.5063 31.5516 46.634 23.1251 38.4693 19.8561L38.0086 19.6716ZM31.9098 22.2226C23.9076 22.2226 17.4205 28.7097 17.4204 36.7119L17.4204 37.8671L17.4205 37.8813C17.4485 41.8357 17.9401 48.9883 22.1639 54.364C22.8463 55.2326 24.1036 55.3835 24.9722 54.701C25.8407 54.0186 25.9916 52.7613 25.3092 51.8928C21.976 47.6506 21.4483 41.7122 21.4204 37.86L21.4204 36.7119C21.4205 30.9188 26.1167 26.2226 31.9098 26.2226C37.7029 26.2226 42.3992 30.9189 42.3992 36.712V40.3763C42.3992 41.4809 43.2946 42.3763 44.3992 42.3763C45.5037 42.3763 46.3992 41.4809 46.3992 40.3763V36.712C46.3992 28.7097 39.9121 22.2226 31.9098 22.2226Z" fill="#003087"/>
</svg>
