<svg width="248" height="133" viewBox="0 0 248 133" fill="none" xmlns="http://www.w3.org/2000/svg">
<path opacity="0.2" d="M247.112 107.705C247.112 116.173 195.475 123.038 131.779 123.038C110.633 123.038 90.8171 122.282 73.7778 120.961C73.7784 120.987 73.7786 121.013 73.7786 121.038C73.7786 127.297 57.3624 132.372 37.112 132.372C16.8615 132.372 0.445312 127.297 0.445312 121.038C0.445312 116.774 8.06489 113.06 19.3254 111.125C17.4406 110.025 16.4453 108.881 16.4453 107.705C16.4453 99.2365 68.0818 92.3716 131.779 92.3716C195.475 92.3716 247.112 99.2365 247.112 107.705Z" fill="#0C0C0D"/>
<path d="M48.2596 19.8136C47.9293 16.1466 50.6344 12.9061 54.3014 12.5759L132.651 5.51977C136.318 5.18952 139.559 7.89453 139.889 11.5616L146.945 89.9112C147.275 93.5782 144.57 96.8187 140.903 97.1489L62.5534 104.205C58.8864 104.535 55.6459 101.83 55.3157 98.1632L48.2596 19.8136Z" fill="#1040C1"/>
<path fill-rule="evenodd" clip-rule="evenodd" d="M105.547 82.5283L105.63 82.4543C107.18 81.0626 108.105 79.3854 108.438 78.0081C108.756 76.6965 108.453 76.2399 108.45 76.2257C108.258 76.0394 107.807 75.7307 106.29 76.1095C104.703 76.5059 102.877 77.4718 101.212 78.5322C100.225 79.1612 99.3049 80.2956 98.9018 81.5488C98.5585 82.6161 98.6078 83.6583 99.2144 84.6636C99.8179 85.2622 100.363 85.4366 100.889 85.412C101.581 85.3798 103.121 84.9585 105.469 82.6067L105.547 82.5283ZM96.0036 87.1906C92.9059 82.6922 95.4903 77.3515 99.0258 75.0995C102.561 72.8475 108.117 70.0843 111.371 73.3915C113.884 75.9451 112.593 81.6721 108.349 85.4826C102.848 90.9914 98.5781 90.0578 96.0036 87.1906Z" fill="#9EE0FE"/>
<path fill-rule="evenodd" clip-rule="evenodd" d="M81.949 33.0155C78.6218 37.856 76.8582 43.7476 76.2799 47.6524C76.0731 49.0487 74.7735 50.013 73.3772 49.8062C71.9809 49.5994 71.0166 48.2998 71.2234 46.9035C71.8863 42.4279 73.8664 35.7503 77.7366 30.1199C81.6389 24.4429 87.6607 19.5892 96.2972 19.5965C106.908 19.6055 113.693 25.6126 117.76 33.4698C121.763 41.204 123.269 50.912 123.577 59.1783C123.629 60.5888 122.528 61.7749 121.118 61.8275C119.707 61.88 118.521 60.7791 118.469 59.3686C118.173 51.4369 116.726 42.5922 113.22 35.8193C109.779 29.1695 104.502 24.7151 96.2929 24.7081C89.8735 24.7027 85.2442 28.2217 81.949 33.0155Z" fill="#9EE0FE"/>
<path fill-rule="evenodd" clip-rule="evenodd" d="M92.9479 34.7774C90.9491 35.8096 88.9676 37.8334 88.6467 42.0847C88.1908 48.1243 84.6821 52.9977 81.4917 56.3246C79.8709 58.0149 78.2627 59.378 77.0308 60.3648C76.5621 60.7403 76.136 61.0706 75.7975 61.3328C75.6954 61.412 75.6012 61.485 75.5163 61.5512C75.3243 61.7006 75.1915 61.806 75.1009 61.8815C75.0853 61.8945 75.0725 61.9052 75.0624 61.9139C74.1427 62.8921 72.6082 62.9952 71.564 62.1236C70.4804 61.219 70.3353 59.6073 71.2398 58.5237C71.4549 58.266 71.7133 58.0506 71.8298 57.9535C71.9906 57.8196 72.1814 57.6694 72.3751 57.5186C72.4745 57.4412 72.5784 57.3606 72.6872 57.2763C73.0217 57.017 73.4019 56.7224 73.835 56.3754C74.9717 55.4648 76.3931 54.2563 77.8023 52.7867C80.6721 49.7941 83.2254 45.9953 83.5496 41.7C84.0087 35.6165 87.0839 32.0526 90.6024 30.2356C93.9064 28.5294 97.5199 28.3998 99.4211 28.8488C100.997 29.221 104.045 30.2619 106.349 33.0627C108.746 35.9775 109.974 40.348 108.649 46.6035C106.115 58.5688 96.7278 73.8266 81.8859 80.6175C80.6023 81.2047 79.0857 80.6403 78.4984 79.3567C77.9111 78.0732 78.4756 76.5566 79.7591 75.9693C92.8493 69.9799 101.381 56.2524 103.648 45.5446C104.724 40.4635 103.606 37.7747 102.401 36.3096C101.102 34.7304 99.2924 34.0707 98.2461 33.8236C97.5254 33.6534 95.1612 33.6344 92.9479 34.7774ZM75.0303 61.9423C75.0302 61.9423 75.0324 61.9403 75.0371 61.936C75.0328 61.9401 75.0304 61.9422 75.0303 61.9423Z" fill="#9EE0FE"/>
<path fill-rule="evenodd" clip-rule="evenodd" d="M96.1719 38.42C97.5822 38.3604 98.7737 39.4553 98.8333 40.8656C99.1225 47.7071 95.1437 62.9711 78.0486 73.1566C76.836 73.8791 75.2673 73.4817 74.5448 72.2691C73.8223 71.0565 74.2196 69.4878 75.4322 68.7653C90.8101 59.6029 93.9413 46.1699 93.7263 41.0814C93.6667 39.6711 94.7616 38.4796 96.1719 38.42Z" fill="#9EE0FE"/>
<path fill-rule="evenodd" clip-rule="evenodd" d="M111.788 48.9982C113.199 49.0054 114.338 50.1556 114.33 51.5671C114.316 54.3677 114.747 58.5828 116.017 62.0864C117.337 65.7265 119.164 67.6346 121.399 67.8363C122.804 67.9633 123.841 69.2058 123.714 70.6116C123.587 72.0174 122.345 73.0542 120.939 72.9273C115.585 72.4439 112.699 67.9332 111.211 63.8284C109.674 59.587 109.203 54.7307 109.219 51.5408C109.226 50.1293 110.376 48.9909 111.788 48.9982Z" fill="#9EE0FE"/>
<path d="M150.346 6.86669C151.176 3.27954 154.757 1.04435 158.344 1.87424L234.986 19.6057C238.573 20.4356 240.808 24.0163 239.978 27.6034L222.247 104.246C221.417 107.833 217.836 110.068 214.249 109.238L137.607 91.5068C134.02 90.6769 131.785 87.0961 132.615 83.509L150.346 6.86669Z" fill="#142C8E"/>
<path fill-rule="evenodd" clip-rule="evenodd" d="M172.101 25.2596C168.339 24.3893 164.584 26.7334 163.714 30.4952L162.186 37.098C161.791 38.8062 160.086 39.8706 158.378 39.4754C156.67 39.0802 155.605 37.3751 156.001 35.6669L157.528 29.0641C159.189 21.8859 166.354 17.4131 173.532 19.0738L180.135 20.6014C181.843 20.9966 182.908 22.7017 182.513 24.4099C182.117 26.118 180.412 27.1824 178.704 26.7872L172.101 25.2596ZM201.417 28.7836C201.813 27.0754 203.518 26.0111 205.226 26.4062L212.489 28.0866C219.667 29.7473 224.14 36.9125 222.479 44.0907L220.952 50.6935C220.557 52.4017 218.851 53.4661 217.143 53.0709C215.435 52.6757 214.371 50.9706 214.766 49.2624L216.294 42.6596C217.164 38.8978 214.82 35.1427 211.058 34.2724L203.795 32.5921C202.087 32.1969 201.022 30.4918 201.417 28.7836ZM154.004 58.3803C155.712 58.7755 156.777 60.4806 156.382 62.1888L154.701 69.4519C153.831 73.2137 156.175 76.9688 159.937 77.8391L166.54 79.3667C168.248 79.7619 169.312 81.467 168.917 83.1752C168.522 84.8833 166.817 85.9477 165.109 85.5525L158.506 84.0249C151.328 82.3642 146.855 75.199 148.515 68.0208L150.196 60.7577C150.591 59.0495 152.296 57.9852 154.004 58.3803ZM212.77 71.9759C214.478 72.371 215.542 74.0762 215.147 75.7843L213.467 83.0474C211.806 90.2256 204.641 94.6984 197.462 93.0377L190.199 91.3573C188.491 90.9621 187.427 89.257 187.822 87.5489C188.217 85.8407 189.922 84.7763 191.63 85.1715L198.894 86.8519C202.655 87.7222 206.41 85.3781 207.281 81.6163L208.961 74.3532C209.356 72.645 211.061 71.5807 212.77 71.9759Z" fill="#9EE0FE"/>
<path d="M194.828 49.4649C193.886 53.557 189.804 56.1099 185.712 55.1671C181.62 54.2242 179.067 50.1427 180.01 46.0506C180.953 41.9586 185.034 39.4057 189.126 40.3485C193.218 41.2913 195.771 45.3729 194.828 49.4649Z" fill="#9EE0FE"/>
<path d="M195.293 74.5393L168.619 68.3935C170.316 61.0279 177.663 56.4326 185.029 58.1297C192.395 59.8268 196.99 67.1736 195.293 74.5393Z" fill="#9EE0FE"/>
<path d="M37.6717 125.491C54.5494 125.491 68.2316 111.809 68.2316 94.9315C68.2316 78.0538 54.5494 64.3716 37.6717 64.3716C20.7941 64.3716 7.11182 78.0538 7.11182 94.9315C7.11182 111.809 20.7941 125.491 37.6717 125.491Z" fill="#F1EFEA"/>
<path fill-rule="evenodd" clip-rule="evenodd" d="M49.4297 78.4658C47.6128 76.4082 44.3417 75.5357 40.1602 75.5507L28.0235 75.5943C27.1688 75.5974 26.4436 76.2227 26.3132 77.0683L21.3747 109.176C21.2771 109.81 21.7681 110.38 22.4081 110.378L29.9011 110.351L29.3956 113.637C29.3106 114.191 29.7396 114.691 30.2997 114.688L36.6153 114.666C37.3627 114.663 37.9971 114.116 38.1111 113.376L38.1718 113.054L39.3345 105.496L39.4097 105.078C39.5237 104.339 40.158 103.792 40.9054 103.789L41.8504 103.786C47.969 103.764 52.7508 101.257 54.1249 94.0541C54.6986 91.0441 54.3877 88.5343 52.8345 86.775C52.3645 86.2429 51.7811 85.8034 51.1011 85.4456C51.5661 82.4024 51.079 80.3345 49.4297 78.4658Z" fill="#009CDE"/>
<path fill-rule="evenodd" clip-rule="evenodd" d="M49.4297 78.4658C47.6128 76.4082 44.3417 75.5357 40.1602 75.5507L28.0235 75.5943C27.1687 75.5974 26.4436 76.2227 26.3132 77.0683L21.3747 109.176C21.2771 109.81 21.7681 110.38 22.4081 110.378L29.9011 110.351L31.7401 98.3934L31.6834 98.7687C31.8133 97.9231 32.5324 97.2978 33.3872 97.2947L36.948 97.2819C43.9421 97.2568 49.4087 94.3921 50.9791 86.1581C51.0256 85.914 51.0651 85.6779 51.1011 85.4456C51.5661 82.4024 51.079 80.3345 49.4297 78.4658Z" fill="#012169"/>
<path fill-rule="evenodd" clip-rule="evenodd" d="M34.5568 84.4103C34.7559 84.3137 34.9783 84.2599 35.2121 84.2591L44.7256 84.2249C45.8527 84.2208 46.9039 84.2911 47.8651 84.4426C48.1401 84.4858 48.4076 84.5356 48.6675 84.5924C48.9269 84.6491 49.1793 84.7129 49.4229 84.7833C49.5453 84.8187 49.6656 84.8555 49.7831 84.8941C50.2559 85.0493 50.6959 85.2329 51.1011 85.4456C51.5661 82.4024 51.079 80.3345 49.4297 78.4658C47.6128 76.4082 44.3417 75.5357 40.1602 75.5507L28.0235 75.5943C27.1687 75.5974 26.4436 76.2227 26.3132 77.0683L21.3747 109.176C21.2771 109.81 21.7681 110.38 22.4081 110.378L29.9011 110.351L33.7159 85.5485C33.7945 85.04 34.1188 84.6227 34.5568 84.4103Z" fill="#003087"/>
</svg>
