<svg width="64" height="64" viewBox="0 0 64 64" fill="none" xmlns="http://www.w3.org/2000/svg">
<g clip-path="url(#clip0_19883_446891)">
<path d="M16 8C14.5273 8 13.3333 9.19391 13.3333 10.6667V16C13.3333 17.4728 14.5273 18.6667 16 18.6667H21.3333C22.8061 18.6667 24 17.4728 24 16V10.6667C24 9.19391 22.8061 8 21.3333 8H16Z" fill="#003087"/>
<path d="M29.3333 8C27.8606 8 26.6667 9.19391 26.6667 10.6667V16C26.6667 17.4728 27.8606 18.6667 29.3333 18.6667H34.6667C36.1394 18.6667 37.3333 17.4728 37.3333 16V10.6667C37.3333 9.19391 36.1394 8 34.6667 8H29.3333Z" fill="#003087"/>
<path d="M40 10.6667C40 9.19391 41.1939 8 42.6667 8H48C49.4728 8 50.6667 9.19391 50.6667 10.6667V16C50.6667 17.4728 49.4728 18.6667 48 18.6667H42.6667C41.1939 18.6667 40 17.4728 40 16V10.6667Z" fill="#003087"/>
<path d="M16 21.3333C14.5273 21.3333 13.3333 22.5272 13.3333 24V29.3333C13.3333 30.8061 14.5273 32 16 32H21.3333C22.8061 32 24 30.8061 24 29.3333V24C24 22.5272 22.8061 21.3333 21.3333 21.3333H16Z" fill="#003087"/>
<path d="M26.6667 24C26.6667 22.5272 27.8606 21.3333 29.3333 21.3333H34.6667C36.1394 21.3333 37.3333 22.5272 37.3333 24V29.3333C37.3333 30.8061 36.1394 32 34.6667 32H29.3333C27.8606 32 26.6667 30.8061 26.6667 29.3333V24Z" fill="#003087"/>
<path d="M42.6667 21.3333C41.1939 21.3333 40 22.5272 40 24V29.3333C40 30.8061 41.1939 32 42.6667 32H48C49.4728 32 50.6667 30.8061 50.6667 29.3333V24C50.6667 22.5272 49.4728 21.3333 48 21.3333H42.6667Z" fill="#003087"/>
<path d="M13.3333 37.3333C13.3333 35.8606 14.5273 34.6667 16 34.6667H21.3333C22.8061 34.6667 24 35.8606 24 37.3333V42.6667C24 44.1394 22.8061 45.3333 21.3333 45.3333H16C14.5273 45.3333 13.3333 44.1394 13.3333 42.6667V37.3333Z" fill="#003087"/>
<path d="M29.3333 34.6667C27.8606 34.6667 26.6667 35.8606 26.6667 37.3333V42.6667C26.6667 44.1394 27.8606 45.3333 29.3333 45.3333H34.6667C36.1394 45.3333 37.3333 44.1394 37.3333 42.6667V37.3333C37.3333 35.8606 36.1394 34.6667 34.6667 34.6667H29.3333Z" fill="#003087"/>
<path d="M40 37.3333C40 35.8606 41.1939 34.6667 42.6667 34.6667H48C49.4728 34.6667 50.6667 35.8606 50.6667 37.3333V42.6667C50.6667 44.1394 49.4728 45.3333 48 45.3333H42.6667C41.1939 45.3333 40 44.1394 40 42.6667V37.3333Z" fill="#003087"/>
<path d="M29.3333 48C27.8606 48 26.6667 49.1939 26.6667 50.6667V56C26.6667 57.4728 27.8606 58.6667 29.3333 58.6667H34.6667C36.1394 58.6667 37.3333 57.4728 37.3333 56V50.6667C37.3333 49.1939 36.1394 48 34.6667 48H29.3333Z" fill="#003087"/>
</g>
<defs>
<clipPath id="clip0_19883_446891">
<rect width="64" height="64" fill="white"/>
</clipPath>
</defs>
</svg>
