<svg width="25" height="24" viewBox="0 0 25 24" fill="none" xmlns="http://www.w3.org/2000/svg">
<path fill-rule="evenodd" clip-rule="evenodd" d="M21.5 12C21.5 16.9706 17.4706 21 12.5 21C7.52944 21 3.5 16.9706 3.5 12C3.5 7.02944 7.52944 3 12.5 3C17.4706 3 21.5 7.02944 21.5 12ZM11.989 13.514H13.009C13.177 13.514 13.285 13.418 13.297 13.25C13.3153 12.8215 13.3392 12.3997 13.3636 11.9696C13.4191 10.9905 13.477 9.96823 13.477 8.72604V7.77804C13.477 7.59804 13.381 7.50204 13.201 7.50204H11.797C11.617 7.50204 11.521 7.59804 11.521 7.77804V8.72604C11.521 9.96823 11.579 10.9903 11.6344 11.9694C11.6588 12.3995 11.6827 12.8215 11.701 13.25C11.713 13.418 11.821 13.514 11.989 13.514ZM12.5 17C13.0523 17 13.5 16.5523 13.5 16C13.5 15.4477 13.0523 15 12.5 15C11.9477 15 11.5 15.4477 11.5 16C11.5 16.5523 11.9477 17 12.5 17Z" fill="#545D68"/>
</svg>
