<svg width="40" height="40" viewBox="0 0 40 40" fill="none" xmlns="http://www.w3.org/2000/svg">
<circle cx="20" cy="20" r="20" fill="#F7F5F0"/>
<path d="M19.9909 31.875C19.8005 31.8735 19.6129 31.8408 19.4351 31.7769C17.8788 31.2325 12.632 29.0767 10.6756 24.5147C9.21933 21.1178 9.37499 15.5541 9.56395 13.3223C9.56395 12.3533 10.5311 11.994 10.9757 11.8307C12.8766 11.1012 17.6454 9.19589 19.2351 8.32506C19.7339 8.05831 20.337 8.05831 20.8358 8.32506C22.4588 9.19607 27.1608 11.0905 29.0507 11.8199C29.79 11.9873 30.3527 12.5766 30.4736 13.3115C30.607 15.5434 30.7626 21.107 29.3064 24.5039C27.35 29.0659 22.1366 31.2107 20.5914 31.7661C20.401 31.8395 20.1967 31.8763 19.9911 31.875H19.9909Z" fill="#38AF88"/>
<path d="M20 31.8748V8.125C20.3907 8.16935 20.6693 8.23603 20.8358 8.32506C22.4588 9.19607 27.1608 11.0905 29.0507 11.8199C29.79 11.9873 30.3527 12.5766 30.4736 13.3115C30.607 15.5434 30.7626 21.107 29.3064 24.5039C27.35 29.0659 22.1366 31.2107 20.5914 31.7661C20.4645 31.815 20.2673 31.8513 20 31.8748Z" fill="#184634"/>
<path d="M14.3358 18.8873C14.8277 18.3955 15.6458 18.4077 16.2081 18.8987L16.2866 18.9721L18.8305 21.5166L24.429 15.9187C24.9209 15.4269 25.7391 15.4391 26.3013 15.9301L26.3798 16.0035C26.9164 16.5401 26.9754 17.3603 26.5315 17.8819L26.4646 17.9543L19.9337 24.4852C19.4419 24.9771 18.6237 24.9649 18.0615 24.4738L17.9829 24.4004L14.4206 20.8381C13.8585 20.276 13.8205 19.4026 14.3358 18.8873Z" fill="white"/>
</svg>
