<svg width="160" height="160" viewBox="0 0 160 160" fill="none" xmlns="http://www.w3.org/2000/svg">
<ellipse opacity="0.2" cx="80" cy="130" rx="60" ry="15" fill="#0C0C0D"/>
<circle cx="80" cy="80" r="60" fill="#FFC43A"/>
<path d="M75.6741 50H84.3882C85.9508 50 87.2128 51.5024 87.0926 53.1852L84.0877 86.419C84.0276 87.3205 83.3065 88.0417 82.4651 88.0417H77.7775C76.9361 88.0417 76.215 87.3205 76.1549 86.419L72.9697 53.2453C72.8495 51.5024 74.0515 50 75.6741 50Z" fill="white"/>
<path d="M80.0612 111.239C76.2149 111.239 73.0298 108.114 73.0298 104.208C73.0298 100.362 76.2149 97.1765 80.0612 97.1765C83.9675 97.1765 87.0926 100.362 87.0926 104.208C87.0926 108.114 83.9675 111.239 80.0612 111.239Z" fill="white"/>
</svg>
